<?xml version="1.0" encoding="UTF-8" standalone="no"?>
<!DOCTYPE svg PUBLIC "-//W3C//DTD SVG 1.1//EN" "http://www.w3.org/Graphics/SVG/1.1/DTD/svg11.dtd">
<svg width="100%" height="100%" viewBox="0 0 200 200" version="1.1" xmlns="http://www.w3.org/2000/svg" xmlns:xlink="http://www.w3.org/1999/xlink" xml:space="preserve" xmlns:serif="http://www.serif.com/" style="fill-rule:evenodd;clip-rule:evenodd;stroke-linejoin:round;stroke-miterlimit:2;">
    <g transform="matrix(0.768477,0,0,0.768477,-280.626,-213.151)">
        <g>
            <g id="tight-bounds">
                <g>
                    <g>
                        <g>
                            <g transform="matrix(1,0,0,1,373.083,349.71)">
                                <g>
                                    <g>
                                        <g>
                                            <g>
                                                <g>
                                                    <g>
                                                        <g>
                                                            <g id="textblocktransform">
                                                                <g id="textblock">
                                                                    <g>
                                                                        <g>
                                                                            <g>
                                                                                <g>
                                                                                    <path id="text-0" d="M69.282,79.729L49.771,79.729L51.611,75.127L67.415,75.127L69.282,79.729ZM72.99,88.985L46.168,88.985L47.956,84.357L71.018,84.357L72.99,88.985ZM76.592,98.241L42.565,98.241L44.38,93.613L74.673,93.613L76.592,98.241ZM44.564,10.86L5.015,110.942L0.019,110.942L42.066,4.628L47.062,4.628L89.057,110.942L84.113,110.942L44.564,10.86ZM9.959,110.942L45.142,21.826L47.772,27.742L14.902,110.942L9.959,110.942ZM19.898,110.942L50.27,34.027L52.716,40.39L24.921,110.942L19.898,110.942ZM29.865,110.942L55.161,46.754L57.607,53.223L34.808,110.942L29.865,110.942ZM76.855,4.628L118.902,110.942L113.906,110.942L71.912,4.628L76.855,4.628ZM61.972,4.628L66.915,4.628L108.963,110.942L104.019,110.942L61.972,4.628ZM52.006,4.628L56.949,4.628L98.996,110.942L94,110.942L52.006,4.628ZM221.483,40.969L217.696,43.467C215.382,40.049 212.375,37.34 208.677,35.342C204.978,33.361 200.963,32.37 196.633,32.37C189.621,32.37 183.634,34.851 178.673,39.812C173.694,44.773 171.205,50.769 171.205,57.798C171.205,64.811 173.694,70.797 178.673,75.758C183.634,80.72 189.621,83.2 196.633,83.2C200.963,83.2 204.978,82.201 208.677,80.202C212.375,78.186 215.382,75.469 217.696,72.051L221.404,74.733C218.669,78.765 215.119,81.955 210.754,84.305C206.389,86.654 201.682,87.828 196.633,87.828C192.566,87.828 188.683,87.039 184.984,85.462C181.285,83.866 178.086,81.728 175.386,79.045C172.686,76.346 170.548,73.146 168.97,69.447C167.392,65.731 166.603,61.848 166.603,57.798C166.603,53.731 167.392,49.839 168.97,46.123C170.548,42.424 172.686,39.225 175.386,36.525C178.086,33.843 181.285,31.704 184.984,30.109C188.683,28.531 192.566,27.742 196.633,27.742C201.734,27.742 206.468,28.925 210.833,31.292C215.198,33.676 218.748,36.902 221.483,40.969ZM229.108,35.71L225.269,38.208C222.096,33.58 217.994,29.907 212.963,27.19C207.949,24.473 202.506,23.114 196.633,23.114C190.34,23.114 184.537,24.666 179.225,27.768C173.931,30.871 169.732,35.079 166.629,40.39C163.527,45.702 161.975,51.505 161.975,57.798C161.975,64.074 163.527,69.868 166.629,75.18C169.732,80.492 173.931,84.699 179.225,87.802C184.537,90.905 190.34,92.456 196.633,92.456C202.506,92.456 207.967,91.089 213.015,88.354C218.064,85.602 222.166,81.894 225.322,77.231L229.108,79.861C225.515,85.172 220.86,89.371 215.145,92.456C209.448,95.542 203.277,97.084 196.633,97.084C189.533,97.084 182.968,95.323 176.937,91.799C170.889,88.293 166.112,83.524 162.606,77.494C159.1,71.463 157.347,64.898 157.347,57.798C157.347,50.681 159.1,44.107 162.606,38.076C166.112,32.046 170.889,27.278 176.937,23.771C182.968,20.248 189.533,18.486 196.633,18.486C203.277,18.486 209.448,20.029 215.145,23.114C220.86,26.199 225.515,30.398 229.108,35.71ZM236.813,30.556L232.974,33.08C228.942,27.172 223.727,22.492 217.328,19.038C210.929,15.602 204.031,13.884 196.633,13.884C190.69,13.884 185.001,15.032 179.567,17.329C174.133,19.643 169.452,22.763 165.525,26.69C161.616,30.6 158.504,35.272 156.19,40.706C153.876,46.14 152.719,51.838 152.719,57.798C152.719,63.741 153.876,69.43 156.19,74.864C158.504,80.299 161.616,84.971 165.525,88.88C169.452,92.807 174.133,95.927 179.567,98.241C185.001,100.538 190.69,101.686 196.633,101.686C204.084,101.686 210.999,99.959 217.38,96.506C223.744,93.035 228.942,88.345 232.974,82.438L236.708,85.199C232.255,91.702 226.505,96.848 219.458,100.634C212.411,104.421 204.802,106.314 196.633,106.314C187.868,106.314 179.76,104.14 172.309,99.793C164.859,95.463 158.96,89.573 154.612,82.122C150.265,74.672 148.091,66.564 148.091,57.798C148.091,49.016 150.265,40.899 154.612,33.448C158.96,25.998 164.859,20.108 172.309,15.778C179.76,11.43 187.868,9.256 196.633,9.256C204.855,9.256 212.498,11.167 219.563,14.989C226.628,18.828 232.378,24.017 236.813,30.556ZM244.413,25.297L240.547,27.795C235.674,20.66 229.371,15.015 221.64,10.86C213.909,6.705 205.574,4.628 196.633,4.628C189.445,4.628 182.565,6.031 175.991,8.835C169.417,11.64 163.754,15.418 159.004,20.169C154.253,24.92 150.484,30.582 147.696,37.156C144.891,43.713 143.489,50.593 143.489,57.798C143.489,64.986 144.891,71.858 147.696,78.414C150.484,84.988 154.253,90.651 159.004,95.401C163.754,100.152 169.417,103.93 175.991,106.735C182.565,109.54 189.445,110.942 196.633,110.942C205.574,110.942 213.918,108.847 221.667,104.658C229.415,100.45 235.726,94.779 240.6,87.644L244.334,90.458C239.022,98.171 232.176,104.281 223.797,108.786C215.4,113.309 206.345,115.57 196.633,115.57C188.797,115.57 181.32,114.036 174.203,110.969C167.068,107.918 160.923,103.807 155.769,98.636C150.615,93.482 146.504,87.346 143.436,80.229C140.386,73.094 138.861,65.617 138.861,57.798C138.861,49.962 140.386,42.477 143.436,35.342C146.504,28.224 150.615,22.089 155.769,16.935C160.923,11.763 167.068,7.652 174.203,4.602C181.32,1.534 188.797,-0 196.633,-0C206.398,-0 215.47,2.27 223.849,6.811C232.246,11.351 239.101,17.513 244.413,25.297Z" style="fill:rgb(255,0,0);fill-rule:nonzero;"/>
                                                                                </g>
                                                                            </g>
                                                                        </g>
                                                                    </g>
                                                                </g>
                                                            </g>
                                                        </g>
                                                    </g>
                                                </g>
                                            </g>
                                        </g>
                                    </g>
                                </g>
                            </g>
                            <g transform="matrix(0.351816,0,0,0.351816,313.088,254.118)">
                                <path d="M287.17,212.263C347.676,149.85 430.988,114.581 517.916,114.581C604.844,114.581 688.156,149.85 748.662,212.263L721.254,212.263C608.241,104.02 427.592,104.02 314.578,212.263L287.17,212.263M287.17,659.656C347.676,722.069 430.988,757.338 517.916,757.338C604.844,757.338 688.156,722.069 748.662,659.656L721.254,659.656C608.241,767.898 427.592,767.898 314.578,659.656L287.17,659.656" style="fill:rgb(255,0,0);fill-rule:nonzero;"/>
                            </g>
                        </g>
                    </g>
                </g>
            </g>
        </g>
    </g>
</svg>
